<svg width="25" height="28" viewBox="0 0 25 28" fill="none" xmlns="http://www.w3.org/2000/svg">
<path fill-rule="evenodd" clip-rule="evenodd" d="M7.32518 0.0538443C7.17902 0.164252 7.19631 0.206856 7.87691 1.4133C8.22064 2.0226 8.50189 2.53312 8.50189 2.54781C8.50189 2.56249 8.39957 2.62856 8.27451 2.69462C6.60855 3.57473 5.31791 5.02717 4.752 6.65872C4.53001 7.29874 4.38889 8.043 4.38889 8.57387V8.78091H12.4985L20.6082 8.78094L20.5897 8.41386C20.5055 6.74211 19.7238 5.12302 18.408 3.89472C17.9057 3.42583 17.3136 3.00094 16.7357 2.69462C16.611 2.62856 16.5091 2.56249 16.5091 2.54781C16.5091 2.53312 16.7903 2.02286 17.134 1.41392C17.8257 0.188463 17.8451 0.136516 17.6458 0.0375608C17.5451 -0.0124375 17.4535 -0.0120371 17.378 0.0387086C17.3451 0.0608382 17.1026 0.460264 16.8391 0.926292C16.5755 1.39235 16.2865 1.90207 16.1967 2.05901L16.0335 2.34434L15.8469 2.26837C15.1512 1.98496 14.2499 1.76785 13.395 1.67768C12.9501 1.63075 11.9646 1.63692 11.5161 1.68945C10.7402 1.78029 10.0454 1.94409 9.36127 2.19734L8.97765 2.33935L8.3492 1.229C8.00355 0.618294 7.68962 0.09159 7.65156 0.0585692C7.56375 -0.0176695 7.42255 -0.019725 7.32518 0.0538443ZM9.1004 4.72114C9.22582 4.77384 9.38028 4.9296 9.43743 5.06093C9.4866 5.17393 9.4866 5.44739 9.43743 5.56038C9.33459 5.79673 9.08289 5.95666 8.81368 5.95666C8.61257 5.95666 8.4826 5.90525 8.34178 5.77001C8.12863 5.56532 8.08424 5.22769 8.23746 4.97663C8.41675 4.68281 8.76434 4.5799 9.1004 4.72114ZM16.385 4.68257C16.7925 4.79933 16.9868 5.23912 16.7931 5.606C16.5517 6.06301 15.9197 6.0838 15.6333 5.64415C15.5679 5.54383 15.5486 5.48022 15.541 5.34053C15.5327 5.18829 15.5422 5.14369 15.6098 5.01836C15.7039 4.84364 15.8476 4.72779 16.0276 4.68126C16.2021 4.63623 16.2235 4.63631 16.385 4.68257ZM1.50303 9.12647C0.936428 9.26012 0.395175 9.66606 0.162824 10.1316C-0.012628 10.4833 -0.00478963 10.2681 0.00343813 14.4999L0.0109433 18.3508L0.0838536 18.5308C0.198431 18.8136 0.326573 18.9941 0.570654 19.2166C0.961639 19.573 1.43012 19.7588 1.9428 19.7608C2.26988 19.762 2.44617 19.7237 2.7489 19.5856C3.2138 19.3736 3.60047 18.8972 3.70791 18.4042C3.74254 18.2452 3.74868 17.6503 3.7491 14.4187C3.74963 10.2074 3.75897 10.4319 3.56728 10.0489C3.33376 9.58227 2.88143 9.23436 2.35258 9.11461C2.12148 9.06229 1.75339 9.06742 1.50303 9.12647ZM22.6016 9.12844C22.1068 9.25294 21.6725 9.58948 21.4583 10.0143C21.2511 10.4256 21.2623 10.1724 21.2623 14.4134C21.2623 18.6598 21.2511 18.4106 21.4601 18.8176C21.5514 18.9956 21.6246 19.0901 21.8011 19.2584C22.1676 19.6079 22.5537 19.763 23.0542 19.7618C23.3968 19.761 23.613 19.7103 23.9437 19.5534C24.4315 19.322 24.77 18.963 24.9363 18.5009L25 18.3241V14.4134V10.5027L24.9372 10.3292C24.9027 10.2337 24.837 10.0931 24.7913 10.0165C24.614 9.71969 24.2159 9.38601 23.8603 9.23634C23.4804 9.07639 22.9792 9.03341 22.6016 9.12844ZM4.4511 15.1542C4.45961 21.6251 4.43779 21.0014 4.67189 21.4607C4.83536 21.7814 5.16681 22.0997 5.50075 22.2567C5.89774 22.4433 5.97093 22.4546 6.86973 22.4683L7.66888 22.4805L7.67197 22.6713C7.67366 22.7762 7.68434 23.715 7.69565 24.7574C7.71841 26.8524 7.71019 26.7593 7.90649 27.1409C8.10534 27.5275 8.5505 27.8516 9.03091 27.9594C9.29067 28.0177 9.72435 28.0126 9.98686 27.9481C10.6207 27.7924 11.0937 27.3383 11.2391 26.7457C11.2753 26.5984 11.2817 26.2676 11.282 24.5238L11.2824 22.475H12.5055H13.7285L13.7289 24.5238C13.7294 26.8017 13.7253 26.7459 13.9167 27.1198C14.1243 27.5258 14.5682 27.8481 15.0766 27.9622C15.3692 28.0279 15.8704 28.0052 16.1485 27.9136C16.7193 27.7256 17.1249 27.3137 17.2782 26.7663C17.3197 26.6182 17.3261 26.3662 17.3348 24.5399L17.3446 22.4804L18.1425 22.4677C19.041 22.4534 19.1474 22.4375 19.5032 22.2636C19.9925 22.0245 20.3363 21.6237 20.5011 21.1003C20.5489 20.9481 20.5518 20.6529 20.5593 15.1675L20.5672 9.39488H12.5054H4.44351L4.4511 15.1542Z" fill="#A7A7C8"/>
</svg>
